<svg xmlns="http://www.w3.org/2000/svg" xmlns:xlink="http://www.w3.org/1999/xlink" width="500" zoomAndPan="magnify" viewBox="0 0 375 374.999991" height="500" preserveAspectRatio="xMidYMid meet" version="1.2"><defs/><g id="3db0b0b419"><g style="fill:#a784bc;fill-opacity:0.2902;"><g transform="translate(42.841012, 223.513797)"><path style="stroke:none" d="M 22.09375 -22.9375 L 26.1875 -36.296875 L 26.375 -36.484375 L 31.5625 -53.75 L 34.171875 -53.75 C 34.785156 -53.75 35.242188 -53.6875 35.546875 -53.5625 C 35.859375 -53.445312 36.015625 -53.078125 36.015625 -52.453125 C 36.015625 -51.773438 35.859375 -50.785156 35.546875 -49.484375 C 35.242188 -48.179688 34.753906 -46.445312 34.078125 -44.28125 C 33.578125 -42.550781 33.109375 -41.144531 32.671875 -40.0625 C 32.242188 -38.976562 31.828125 -38.125 31.421875 -37.5 C 31.023438 -36.882812 30.59375 -36.46875 30.125 -36.25 C 29.664062 -36.039062 29.15625 -35.9375 28.59375 -35.9375 L 28.21875 -35.9375 C 27.976562 -35.9375 27.828125 -35.84375 27.765625 -35.65625 L 23.671875 -23.578125 C 23.546875 -23.148438 23.703125 -22.9375 24.140625 -22.9375 L 24.703125 -22.9375 C 27.609375 -22.9375 30.097656 -23.179688 32.171875 -23.671875 C 34.242188 -24.171875 36.035156 -25.007812 37.546875 -26.1875 C 39.066406 -27.363281 40.367188 -28.941406 41.453125 -30.921875 C 42.535156 -32.898438 43.539062 -35.40625 44.46875 -38.4375 L 48.28125 -51.0625 C 49.269531 -54.21875 49.765625 -56.910156 49.765625 -59.140625 C 49.765625 -62.046875 48.804688 -64.039062 46.890625 -65.125 C 44.972656 -66.207031 41.878906 -66.75 37.609375 -66.75 L 23.390625 -66.75 C 23.210938 -66.75 23.0625 -66.628906 22.9375 -66.390625 L 2.96875 -0.09375 C 2.84375 0.28125 3 0.46875 3.4375 0.46875 L 14.953125 0.46875 C 15.128906 0.46875 15.28125 0.34375 15.40625 0.09375 L 22 -21.90625 C 22 -22.15625 21.96875 -22.3125 21.90625 -22.375 C 21.90625 -22.5 21.96875 -22.6875 22.09375 -22.9375 Z M 22.09375 -22.9375 "/></g></g><g style="fill:#6e3f8a;fill-opacity:1;"><g transform="translate(40.69961, 222.123153)"><path style="stroke:none" d="M 22.09375 -22.9375 L 26.1875 -36.296875 L 26.375 -36.484375 L 31.5625 -53.75 L 34.171875 -53.75 C 34.785156 -53.75 35.242188 -53.6875 35.546875 -53.5625 C 35.859375 -53.445312 36.015625 -53.078125 36.015625 -52.453125 C 36.015625 -51.773438 35.859375 -50.785156 35.546875 -49.484375 C 35.242188 -48.179688 34.753906 -46.445312 34.078125 -44.28125 C 33.578125 -42.550781 33.109375 -41.144531 32.671875 -40.0625 C 32.242188 -38.976562 31.828125 -38.125 31.421875 -37.5 C 31.023438 -36.882812 30.59375 -36.46875 30.125 -36.25 C 29.664062 -36.039062 29.15625 -35.9375 28.59375 -35.9375 L 28.21875 -35.9375 C 27.976562 -35.9375 27.828125 -35.84375 27.765625 -35.65625 L 23.671875 -23.578125 C 23.546875 -23.148438 23.703125 -22.9375 24.140625 -22.9375 L 24.703125 -22.9375 C 27.609375 -22.9375 30.097656 -23.179688 32.171875 -23.671875 C 34.242188 -24.171875 36.035156 -25.007812 37.546875 -26.1875 C 39.066406 -27.363281 40.367188 -28.941406 41.453125 -30.921875 C 42.535156 -32.898438 43.539062 -35.40625 44.46875 -38.4375 L 48.28125 -51.0625 C 49.269531 -54.21875 49.765625 -56.910156 49.765625 -59.140625 C 49.765625 -62.046875 48.804688 -64.039062 46.890625 -65.125 C 44.972656 -66.207031 41.878906 -66.75 37.609375 -66.75 L 23.390625 -66.75 C 23.210938 -66.75 23.0625 -66.628906 22.9375 -66.390625 L 2.96875 -0.09375 C 2.84375 0.28125 3 0.46875 3.4375 0.46875 L 14.953125 0.46875 C 15.128906 0.46875 15.28125 0.34375 15.40625 0.09375 L 22 -21.90625 C 22 -22.15625 21.96875 -22.3125 21.90625 -22.375 C 21.90625 -22.5 21.96875 -22.6875 22.09375 -22.9375 Z M 22.09375 -22.9375 "/></g></g><g style="fill:#a784bc;fill-opacity:0.2902;"><g transform="translate(76.452808, 223.513797)"><path style="stroke:none" d="M 22.9375 -66.390625 L 2.96875 -0.09375 C 2.84375 0.28125 3 0.46875 3.4375 0.46875 L 14.953125 0.46875 C 15.128906 0.46875 15.28125 0.34375 15.40625 0.09375 L 23.859375 -28.125 L 29.53125 -28.125 L 21.171875 -0.09375 C 21.046875 0.28125 21.195312 0.46875 21.625 0.46875 L 33.140625 0.46875 C 33.328125 0.46875 33.484375 0.34375 33.609375 0.09375 L 53.578125 -66.203125 C 53.691406 -66.566406 53.535156 -66.75 53.109375 -66.75 L 41.59375 -66.75 C 41.40625 -66.75 41.25 -66.628906 41.125 -66.390625 L 33.515625 -41.125 L 27.859375 -41.125 L 35.375 -66.203125 C 35.5 -66.566406 35.34375 -66.75 34.90625 -66.75 L 23.390625 -66.75 C 23.210938 -66.75 23.0625 -66.628906 22.9375 -66.390625 Z M 22.9375 -66.390625 "/></g></g><g style="fill:#3f408a;fill-opacity:1;"><g transform="translate(74.311405, 222.123153)"><path style="stroke:none" d="M 22.9375 -66.390625 L 2.96875 -0.09375 C 2.84375 0.28125 3 0.46875 3.4375 0.46875 L 14.953125 0.46875 C 15.128906 0.46875 15.28125 0.34375 15.40625 0.09375 L 23.859375 -28.125 L 29.53125 -28.125 L 21.171875 -0.09375 C 21.046875 0.28125 21.195312 0.46875 21.625 0.46875 L 33.140625 0.46875 C 33.328125 0.46875 33.484375 0.34375 33.609375 0.09375 L 53.578125 -66.203125 C 53.691406 -66.566406 53.535156 -66.75 53.109375 -66.75 L 41.59375 -66.75 C 41.40625 -66.75 41.25 -66.628906 41.125 -66.390625 L 33.515625 -41.125 L 27.859375 -41.125 L 35.375 -66.203125 C 35.5 -66.566406 35.34375 -66.75 34.90625 -66.75 L 23.390625 -66.75 C 23.210938 -66.75 23.0625 -66.628906 22.9375 -66.390625 Z M 22.9375 -66.390625 "/></g></g><g style="fill:#a784bc;fill-opacity:0.2902;"><g transform="translate(113.03629, 223.513797)"><path style="stroke:none" d="M 31.46875 -43.921875 L 32.78125 -66.296875 C 32.78125 -66.597656 32.625 -66.75 32.3125 -66.75 L 20.234375 -66.75 C 19.929688 -66.75 19.78125 -66.597656 19.78125 -66.296875 L 19.59375 -25.34375 L 11.984375 -0.09375 C 11.859375 0.28125 12.007812 0.46875 12.4375 0.46875 L 23.953125 0.46875 C 24.140625 0.46875 24.296875 0.34375 24.421875 0.09375 L 32.03125 -25.0625 L 56.546875 -66.015625 C 56.785156 -66.503906 56.660156 -66.75 56.171875 -66.75 L 44.09375 -66.75 C 44.039062 -66.75 43.921875 -66.65625 43.734375 -66.46875 Z M 31.46875 -43.921875 "/></g></g><g style="fill:#3f648a;fill-opacity:1;"><g transform="translate(110.894888, 222.123153)"><path style="stroke:none" d="M 31.46875 -43.921875 L 32.78125 -66.296875 C 32.78125 -66.597656 32.625 -66.75 32.3125 -66.75 L 20.234375 -66.75 C 19.929688 -66.75 19.78125 -66.597656 19.78125 -66.296875 L 19.59375 -25.34375 L 11.984375 -0.09375 C 11.859375 0.28125 12.007812 0.46875 12.4375 0.46875 L 23.953125 0.46875 C 24.140625 0.46875 24.296875 0.34375 24.421875 0.09375 L 32.03125 -25.0625 L 56.546875 -66.015625 C 56.785156 -66.503906 56.660156 -66.75 56.171875 -66.75 L 44.09375 -66.75 C 44.039062 -66.75 43.921875 -66.65625 43.734375 -66.46875 Z M 31.46875 -43.921875 "/></g></g><g style="fill:#a784bc;fill-opacity:0.2902;"><g transform="translate(149.619773, 223.513797)"><path style="stroke:none" d="M 24.421875 -53.75 L 8.359375 -0.09375 C 8.234375 0.28125 8.382812 0.46875 8.8125 0.46875 L 20.328125 0.46875 C 20.515625 0.46875 20.671875 0.34375 20.796875 0.09375 L 36.953125 -53.75 L 45.125 -53.75 C 45.3125 -53.75 45.46875 -53.875 45.59375 -54.125 L 49.296875 -66.203125 C 49.421875 -66.566406 49.265625 -66.75 48.828125 -66.75 L 20.234375 -66.75 C 20.054688 -66.75 19.90625 -66.628906 19.78125 -66.390625 L 16.0625 -54.3125 C 15.9375 -53.9375 16.09375 -53.75 16.53125 -53.75 Z M 24.421875 -53.75 "/></g></g><g style="fill:#3d7c74;fill-opacity:1;"><g transform="translate(147.478371, 222.123153)"><path style="stroke:none" d="M 24.421875 -53.75 L 8.359375 -0.09375 C 8.234375 0.28125 8.382812 0.46875 8.8125 0.46875 L 20.328125 0.46875 C 20.515625 0.46875 20.671875 0.34375 20.796875 0.09375 L 36.953125 -53.75 L 45.125 -53.75 C 45.3125 -53.75 45.46875 -53.875 45.59375 -54.125 L 49.296875 -66.203125 C 49.421875 -66.566406 49.265625 -66.75 48.828125 -66.75 L 20.234375 -66.75 C 20.054688 -66.75 19.90625 -66.628906 19.78125 -66.390625 L 16.0625 -54.3125 C 15.9375 -53.9375 16.09375 -53.75 16.53125 -53.75 Z M 24.421875 -53.75 "/></g></g><g style="fill:#a784bc;fill-opacity:0.2902;"><g transform="translate(178.77404, 223.513797)"><path style="stroke:none" d="M 17.921875 -52.078125 L 6.59375 -14.390625 C 5.664062 -11.421875 5.203125 -8.882812 5.203125 -6.78125 C 5.203125 -3.8125 6.128906 -1.644531 7.984375 -0.28125 C 9.835938 1.082031 12.78125 1.765625 16.8125 1.765625 L 17.921875 1.765625 C 18.109375 1.765625 18.289062 1.75 18.46875 1.71875 C 18.65625 1.6875 18.84375 1.671875 19.03125 1.671875 C 19.21875 1.671875 19.375 1.546875 19.5 1.296875 L 22.9375 -11.234375 C 23 -11.484375 22.953125 -11.65625 22.796875 -11.75 C 22.640625 -11.84375 22.46875 -11.828125 22.28125 -11.703125 C 21.664062 -11.390625 21.046875 -11.234375 20.421875 -11.234375 C 19.304688 -11.234375 18.75 -11.726562 18.75 -12.71875 C 18.75 -13.21875 18.90625 -14.082031 19.21875 -15.3125 L 29.890625 -50.78125 C 30.390625 -52.457031 30.960938 -53.585938 31.609375 -54.171875 C 32.265625 -54.765625 33.023438 -55.0625 33.890625 -55.0625 C 34.378906 -55.0625 34.8125 -54.921875 35.1875 -54.640625 C 35.5625 -54.359375 35.75 -53.972656 35.75 -53.484375 C 35.75 -53.421875 35.6875 -53.140625 35.5625 -52.640625 L 32.6875 -42.703125 C 32.5625 -42.335938 32.710938 -42.15625 33.140625 -42.15625 L 44.65625 -42.15625 C 44.84375 -42.15625 45 -42.273438 45.125 -42.515625 L 47.90625 -51.90625 C 48.769531 -54.875 49.203125 -57.347656 49.203125 -59.328125 C 49.203125 -62.359375 48.257812 -64.566406 46.375 -65.953125 C 44.488281 -67.347656 41.535156 -68.046875 37.515625 -68.046875 C 32.191406 -68.046875 27.992188 -66.789062 24.921875 -64.28125 C 21.859375 -61.78125 19.523438 -57.710938 17.921875 -52.078125 Z M 17.921875 -52.078125 "/></g></g><g style="fill:#849060;fill-opacity:1;"><g transform="translate(176.632638, 222.123153)"><path style="stroke:none" d="M 17.921875 -52.078125 L 6.59375 -14.390625 C 5.664062 -11.421875 5.203125 -8.882812 5.203125 -6.78125 C 5.203125 -3.8125 6.128906 -1.644531 7.984375 -0.28125 C 9.835938 1.082031 12.78125 1.765625 16.8125 1.765625 L 17.921875 1.765625 C 18.109375 1.765625 18.289062 1.75 18.46875 1.71875 C 18.65625 1.6875 18.84375 1.671875 19.03125 1.671875 C 19.21875 1.671875 19.375 1.546875 19.5 1.296875 L 22.9375 -11.234375 C 23 -11.484375 22.953125 -11.65625 22.796875 -11.75 C 22.640625 -11.84375 22.46875 -11.828125 22.28125 -11.703125 C 21.664062 -11.390625 21.046875 -11.234375 20.421875 -11.234375 C 19.304688 -11.234375 18.75 -11.726562 18.75 -12.71875 C 18.75 -13.21875 18.90625 -14.082031 19.21875 -15.3125 L 29.890625 -50.78125 C 30.390625 -52.457031 30.960938 -53.585938 31.609375 -54.171875 C 32.265625 -54.765625 33.023438 -55.0625 33.890625 -55.0625 C 34.378906 -55.0625 34.8125 -54.921875 35.1875 -54.640625 C 35.5625 -54.359375 35.75 -53.972656 35.75 -53.484375 C 35.75 -53.421875 35.6875 -53.140625 35.5625 -52.640625 L 32.6875 -42.703125 C 32.5625 -42.335938 32.710938 -42.15625 33.140625 -42.15625 L 44.65625 -42.15625 C 44.84375 -42.15625 45 -42.273438 45.125 -42.515625 L 47.90625 -51.90625 C 48.769531 -54.875 49.203125 -57.347656 49.203125 -59.328125 C 49.203125 -62.359375 48.257812 -64.566406 46.375 -65.953125 C 44.488281 -67.347656 41.535156 -68.046875 37.515625 -68.046875 C 32.191406 -68.046875 27.992188 -66.789062 24.921875 -64.28125 C 21.859375 -61.78125 19.523438 -57.710938 17.921875 -52.078125 Z M 17.921875 -52.078125 "/></g></g><g style="fill:#a784bc;fill-opacity:0.2902;"><g transform="translate(212.385836, 223.513797)"><path style="stroke:none" d="M 3.4375 0.46875 L 27.109375 0.46875 C 27.296875 0.46875 27.453125 0.34375 27.578125 0.09375 L 31.203125 -11.984375 C 31.316406 -12.347656 31.160156 -12.53125 30.734375 -12.53125 L 19.21875 -12.53125 L 35.375 -66.203125 C 35.5 -66.566406 35.34375 -66.75 34.90625 -66.75 L 23.390625 -66.75 C 23.210938 -66.75 23.0625 -66.628906 22.9375 -66.390625 L 2.96875 -0.09375 C 2.84375 0.28125 3 0.46875 3.4375 0.46875 Z M 3.4375 0.46875 "/></g></g><g style="fill:#ceb94b;fill-opacity:1;"><g transform="translate(210.244434, 222.123153)"><path style="stroke:none" d="M 3.4375 0.46875 L 27.109375 0.46875 C 27.296875 0.46875 27.453125 0.34375 27.578125 0.09375 L 31.203125 -11.984375 C 31.316406 -12.347656 31.160156 -12.53125 30.734375 -12.53125 L 19.21875 -12.53125 L 35.375 -66.203125 C 35.5 -66.566406 35.34375 -66.75 34.90625 -66.75 L 23.390625 -66.75 C 23.210938 -66.75 23.0625 -66.628906 22.9375 -66.390625 L 2.96875 -0.09375 C 2.84375 0.28125 3 0.46875 3.4375 0.46875 Z M 3.4375 0.46875 "/></g></g><g style="fill:#a784bc;fill-opacity:0.2902;"><g transform="translate(240.150429, 223.513797)"><path style="stroke:none" d="M 37.140625 -14.203125 L 52.734375 -66.203125 C 52.859375 -66.566406 52.703125 -66.75 52.265625 -66.75 L 40.765625 -66.75 C 40.578125 -66.75 40.421875 -66.628906 40.296875 -66.390625 L 25.25 -16.4375 C 24.570312 -14.269531 23.921875 -12.859375 23.296875 -12.203125 C 22.679688 -11.554688 21.847656 -11.234375 20.796875 -11.234375 C 20.117188 -11.234375 19.625 -11.328125 19.3125 -11.515625 C 19 -11.703125 18.84375 -12.101562 18.84375 -12.71875 C 18.84375 -13.394531 19.09375 -14.570312 19.59375 -16.25 L 34.625 -66.203125 C 34.75 -66.566406 34.597656 -66.75 34.171875 -66.75 L 22.65625 -66.75 C 22.46875 -66.75 22.3125 -66.628906 22.1875 -66.390625 L 6.59375 -14.390625 C 6.09375 -12.785156 5.71875 -11.332031 5.46875 -10.03125 C 5.226562 -8.726562 5.109375 -7.550781 5.109375 -6.5 C 5.109375 -3.28125 6.144531 -1.097656 8.21875 0.046875 C 10.289062 1.191406 13.273438 1.765625 17.171875 1.765625 C 19.710938 1.765625 22.003906 1.53125 24.046875 1.0625 C 26.085938 0.601562 27.910156 -0.226562 29.515625 -1.4375 C 31.128906 -2.644531 32.554688 -4.285156 33.796875 -6.359375 C 35.035156 -8.429688 36.148438 -11.046875 37.140625 -14.203125 Z M 37.140625 -14.203125 "/></g></g><g style="fill:#d79754;fill-opacity:1;"><g transform="translate(238.009027, 222.123153)"><path style="stroke:none" d="M 37.140625 -14.203125 L 52.734375 -66.203125 C 52.859375 -66.566406 52.703125 -66.75 52.265625 -66.75 L 40.765625 -66.75 C 40.578125 -66.75 40.421875 -66.628906 40.296875 -66.390625 L 25.25 -16.4375 C 24.570312 -14.269531 23.921875 -12.859375 23.296875 -12.203125 C 22.679688 -11.554688 21.847656 -11.234375 20.796875 -11.234375 C 20.117188 -11.234375 19.625 -11.328125 19.3125 -11.515625 C 19 -11.703125 18.84375 -12.101562 18.84375 -12.71875 C 18.84375 -13.394531 19.09375 -14.570312 19.59375 -16.25 L 34.625 -66.203125 C 34.75 -66.566406 34.597656 -66.75 34.171875 -66.75 L 22.65625 -66.75 C 22.46875 -66.75 22.3125 -66.628906 22.1875 -66.390625 L 6.59375 -14.390625 C 6.09375 -12.785156 5.71875 -11.332031 5.46875 -10.03125 C 5.226562 -8.726562 5.109375 -7.550781 5.109375 -6.5 C 5.109375 -3.28125 6.144531 -1.097656 8.21875 0.046875 C 10.289062 1.191406 13.273438 1.765625 17.171875 1.765625 C 19.710938 1.765625 22.003906 1.53125 24.046875 1.0625 C 26.085938 0.601562 27.910156 -0.226562 29.515625 -1.4375 C 31.128906 -2.644531 32.554688 -4.285156 33.796875 -6.359375 C 35.035156 -8.429688 36.148438 -11.046875 37.140625 -14.203125 Z M 37.140625 -14.203125 "/></g></g><g style="fill:#a784bc;fill-opacity:0.2902;"><g transform="translate(275.156706, 223.513797)"><path style="stroke:none" d="M 33.328125 -45.859375 L 44.5625 -45.859375 C 44.75 -45.859375 44.90625 -45.984375 45.03125 -46.234375 L 46.609375 -51.4375 C 47.535156 -54.46875 48 -57.035156 48 -59.140625 C 48 -62.359375 47.023438 -64.644531 45.078125 -66 C 43.128906 -67.363281 40.234375 -68.046875 36.390625 -68.046875 C 33.609375 -68.046875 31.148438 -67.722656 29.015625 -67.078125 C 26.878906 -66.429688 25.003906 -65.410156 23.390625 -64.015625 C 21.785156 -62.617188 20.394531 -60.820312 19.21875 -58.625 C 18.039062 -56.425781 16.988281 -53.8125 16.0625 -50.78125 C 15.070312 -47.4375 14.578125 -44.5 14.578125 -41.96875 C 14.578125 -40.351562 14.742188 -38.910156 15.078125 -37.640625 C 15.421875 -36.378906 15.851562 -35.207031 16.375 -34.125 C 16.90625 -33.039062 17.507812 -32.046875 18.1875 -31.140625 C 18.875 -30.242188 19.554688 -29.394531 20.234375 -28.59375 C 21.285156 -27.289062 22.242188 -25.988281 23.109375 -24.6875 C 23.984375 -23.394531 24.421875 -21.820312 24.421875 -19.96875 C 24.421875 -18.914062 24.234375 -17.707031 23.859375 -16.34375 C 23.304688 -14.539062 22.6875 -13.238281 22 -12.4375 C 21.320312 -11.632812 20.425781 -11.234375 19.3125 -11.234375 C 18.9375 -11.234375 18.628906 -11.265625 18.390625 -11.328125 C 18.140625 -11.453125 17.953125 -11.359375 17.828125 -11.046875 L 13.5625 1.109375 C 13.4375 1.546875 13.585938 1.765625 14.015625 1.765625 L 15.6875 1.765625 C 18.539062 1.765625 21.035156 1.46875 23.171875 0.875 C 25.304688 0.289062 27.175781 -0.722656 28.78125 -2.171875 C 30.394531 -3.628906 31.800781 -5.535156 33 -7.890625 C 34.207031 -10.242188 35.335938 -13.1875 36.390625 -16.71875 C 36.890625 -18.382812 37.242188 -19.941406 37.453125 -21.390625 C 37.671875 -22.847656 37.78125 -24.195312 37.78125 -25.4375 C 37.78125 -27.113281 37.59375 -28.628906 37.21875 -29.984375 C 36.851562 -31.347656 36.390625 -32.585938 35.828125 -33.703125 C 35.273438 -34.816406 34.65625 -35.820312 33.96875 -36.71875 C 33.289062 -37.613281 32.613281 -38.460938 31.9375 -39.265625 C 30.882812 -40.503906 29.957031 -41.710938 29.15625 -42.890625 C 28.351562 -44.066406 27.953125 -45.460938 27.953125 -47.078125 C 27.953125 -47.503906 27.976562 -47.929688 28.03125 -48.359375 C 28.09375 -48.796875 28.21875 -49.296875 28.40625 -49.859375 C 28.90625 -51.710938 29.492188 -53.039062 30.171875 -53.84375 C 30.859375 -54.65625 31.726562 -55.0625 32.78125 -55.0625 C 34.007812 -55.0625 34.625 -54.410156 34.625 -53.109375 C 34.625 -52.421875 34.441406 -51.429688 34.078125 -50.140625 L 34.078125 -50.234375 L 32.859375 -46.515625 C 32.742188 -46.078125 32.898438 -45.859375 33.328125 -45.859375 Z M 33.328125 -45.859375 "/></g></g><g style="fill:#b84b4b;fill-opacity:1;"><g transform="translate(273.015304, 222.123153)"><path style="stroke:none" d="M 33.328125 -45.859375 L 44.5625 -45.859375 C 44.75 -45.859375 44.90625 -45.984375 45.03125 -46.234375 L 46.609375 -51.4375 C 47.535156 -54.46875 48 -57.035156 48 -59.140625 C 48 -62.359375 47.023438 -64.644531 45.078125 -66 C 43.128906 -67.363281 40.234375 -68.046875 36.390625 -68.046875 C 33.609375 -68.046875 31.148438 -67.722656 29.015625 -67.078125 C 26.878906 -66.429688 25.003906 -65.410156 23.390625 -64.015625 C 21.785156 -62.617188 20.394531 -60.820312 19.21875 -58.625 C 18.039062 -56.425781 16.988281 -53.8125 16.0625 -50.78125 C 15.070312 -47.4375 14.578125 -44.5 14.578125 -41.96875 C 14.578125 -40.351562 14.742188 -38.910156 15.078125 -37.640625 C 15.421875 -36.378906 15.851562 -35.207031 16.375 -34.125 C 16.90625 -33.039062 17.507812 -32.046875 18.1875 -31.140625 C 18.875 -30.242188 19.554688 -29.394531 20.234375 -28.59375 C 21.285156 -27.289062 22.242188 -25.988281 23.109375 -24.6875 C 23.984375 -23.394531 24.421875 -21.820312 24.421875 -19.96875 C 24.421875 -18.914062 24.234375 -17.707031 23.859375 -16.34375 C 23.304688 -14.539062 22.6875 -13.238281 22 -12.4375 C 21.320312 -11.632812 20.425781 -11.234375 19.3125 -11.234375 C 18.9375 -11.234375 18.628906 -11.265625 18.390625 -11.328125 C 18.140625 -11.453125 17.953125 -11.359375 17.828125 -11.046875 L 13.5625 1.109375 C 13.4375 1.546875 13.585938 1.765625 14.015625 1.765625 L 15.6875 1.765625 C 18.539062 1.765625 21.035156 1.46875 23.171875 0.875 C 25.304688 0.289062 27.175781 -0.722656 28.78125 -2.171875 C 30.394531 -3.628906 31.800781 -5.535156 33 -7.890625 C 34.207031 -10.242188 35.335938 -13.1875 36.390625 -16.71875 C 36.890625 -18.382812 37.242188 -19.941406 37.453125 -21.390625 C 37.671875 -22.847656 37.78125 -24.195312 37.78125 -25.4375 C 37.78125 -27.113281 37.59375 -28.628906 37.21875 -29.984375 C 36.851562 -31.347656 36.390625 -32.585938 35.828125 -33.703125 C 35.273438 -34.816406 34.65625 -35.820312 33.96875 -36.71875 C 33.289062 -37.613281 32.613281 -38.460938 31.9375 -39.265625 C 30.882812 -40.503906 29.957031 -41.710938 29.15625 -42.890625 C 28.351562 -44.066406 27.953125 -45.460938 27.953125 -47.078125 C 27.953125 -47.503906 27.976562 -47.929688 28.03125 -48.359375 C 28.09375 -48.796875 28.21875 -49.296875 28.40625 -49.859375 C 28.90625 -51.710938 29.492188 -53.039062 30.171875 -53.84375 C 30.859375 -54.65625 31.726562 -55.0625 32.78125 -55.0625 C 34.007812 -55.0625 34.625 -54.410156 34.625 -53.109375 C 34.625 -52.421875 34.441406 -51.429688 34.078125 -50.140625 L 34.078125 -50.234375 L 32.859375 -46.515625 C 32.742188 -46.078125 32.898438 -45.859375 33.328125 -45.859375 Z M 33.328125 -45.859375 "/></g></g><g style="fill:#a784bc;fill-opacity:0.2902;"><g transform="translate(307.282657, 223.513797)"><path style="stroke:none" d="M 24.421875 -53.75 L 8.359375 -0.09375 C 8.234375 0.28125 8.382812 0.46875 8.8125 0.46875 L 20.328125 0.46875 C 20.515625 0.46875 20.671875 0.34375 20.796875 0.09375 L 36.953125 -53.75 L 45.125 -53.75 C 45.3125 -53.75 45.46875 -53.875 45.59375 -54.125 L 49.296875 -66.203125 C 49.421875 -66.566406 49.265625 -66.75 48.828125 -66.75 L 20.234375 -66.75 C 20.054688 -66.75 19.90625 -66.628906 19.78125 -66.390625 L 16.0625 -54.3125 C 15.9375 -53.9375 16.09375 -53.75 16.53125 -53.75 Z M 24.421875 -53.75 "/></g></g><g style="fill:#da63aa;fill-opacity:1;"><g transform="translate(305.141255, 222.123153)"><path style="stroke:none" d="M 24.421875 -53.75 L 8.359375 -0.09375 C 8.234375 0.28125 8.382812 0.46875 8.8125 0.46875 L 20.328125 0.46875 C 20.515625 0.46875 20.671875 0.34375 20.796875 0.09375 L 36.953125 -53.75 L 45.125 -53.75 C 45.3125 -53.75 45.46875 -53.875 45.59375 -54.125 L 49.296875 -66.203125 C 49.421875 -66.566406 49.265625 -66.75 48.828125 -66.75 L 20.234375 -66.75 C 20.054688 -66.75 19.90625 -66.628906 19.78125 -66.390625 L 16.0625 -54.3125 C 15.9375 -53.9375 16.09375 -53.75 16.53125 -53.75 Z M 24.421875 -53.75 "/></g></g></g></svg>